PathFileType	4	(X/Y/Z)	 0.06m3min.trc
DataRate	CameraRate	NumFrames	NumMarkers	Units	OrigDataRate	OrigDataStartFrame	OrigNumFrames
200	200	9	43	m	200	1	1000
Frame#	Time	C7			LSH			RSH			MAN			RASI			LASI			HIPR			HIPL			RPSI			LPSI			COX			RTHI1			RTHI2			RTHI3			RTHI4			RLKN			RMKN			RSHA1			RSHA2			RSHA3			RSHA4			RLMAL			RMMAL			RHEEL			RMET5			RMET1			RTOE			LTHI1			LTHI2			LTHI3			LTHI4			LLKN			LMKN			LSHA1			LSHA2			LSHA3			LSHA4			LLMAL			LMMAL			LHEEL			LMET5			LMET1			LTOE			
		X1	Y1	Z1	X2	Y2	Z2	X3	Y3	Z3	X4	Y4	Z4	X5	Y5	Z5	X6	Y6	Z6	X7	Y7	Z7	X8	Y8	Z8	X9	Y9	Z9	X10	Y10	Z10	X11	Y11	Z11	X12	Y12	Z12	X13	Y13	Z13	X14	Y14	Z14	X15	Y15	Z15	X16	Y16	Z16	X17	Y17	Z17	X18	Y18	Z18	X19	Y19	Z19	X20	Y20	Z20	X21	Y21	Z21	X22	Y22	Z22	X23	Y23	Z23	X24	Y24	Z24	X25	Y25	Z25	X26	Y26	Z26	X27	Y27	Z27	X28	Y28	Z28	X29	Y29	Z29	X30	Y30	Z30	X31	Y31	Z31	X32	Y32	Z32	X33	Y33	Z33	X34	Y34	Z34	X35	Y35	Z35	X36	Y36	Z36	X37	Y37	Z37	X38	Y38	Z38	X39	Y39	Z39	X40	Y40	Z40	X41	Y41	Z41	X42	Y42	Z42	X43	Y43	Z43	
1	0.0050	-0.284338	1.378752	-0.472759	-0.199957	1.360572	-0.625817	-0.227441	1.354203	-0.310310	-0.162610	1.320926	-0.463475	-0.143756	0.897048	-0.352765	-0.150272	0.892079	-0.590857	-0.188520	0.963730	-0.327090	-0.183702	0.958574	-0.610637	-0.311052	0.936084	-0.431251	-0.311838	0.935397	-0.502379	-0.309039	0.942608	-0.465694	-0.270871	0.722094	-0.294484	-0.260683	0.662748	-0.290271	-0.197227	0.670514	-0.280209	-0.198869	0.732194	-0.283326	-0.248511	0.465196	-0.303928	-0.227732	0.448319	-0.423231	-0.343251	0.300271	-0.301963	-0.354607	0.259207	-0.312584	-0.295013	0.246813	-0.300771	-0.292019	0.286280	-0.292764	-0.354528	0.125257	-0.320506	-0.322539	0.125299	-0.394052	-0.400078	0.119886	-0.365878	-0.273853	0.035432	-0.289396	-0.228860	0.040595	-0.354065	-0.209409	0.032932	-0.348379	-0.271072	0.734066	-0.646168	-0.255956	0.675149	-0.656575	-0.191916	0.686267	-0.660735	-0.199764	0.745163	-0.651888	-0.258298	0.461669	-0.649961	-0.227327	0.451239	-0.532533	-0.356774	0.307496	-0.649227	-0.363639	0.268357	-0.643719	-0.305437	0.258312	-0.658425	-0.303742	0.300187	-0.667456	-0.354997	0.131872	-0.643347	-0.332442	0.132116	-0.567793	-0.406344	0.126542	-0.595107	-0.282452	0.040545	-0.667067	-0.236004	0.040455	-0.601835	-0.220730	0.034927	-0.606401	
2	0.0100	-0.284427	1.383042	-0.472781	-0.199993	1.365415	-0.625307	-0.227733	1.359088	-0.310902	-0.163140	1.325601	-0.463487	-0.143072	0.901078	-0.353052	-0.149755	0.896322	-0.590879	-0.187432	0.968089	-0.327372	-0.182966	0.963192	-0.610468	-0.310087	0.941045	-0.431213	-0.311054	0.940387	-0.502332	-0.308046	0.947534	-0.465691	-0.270552	0.726479	-0.294614	-0.260665	0.667095	-0.290387	-0.197195	0.674528	-0.280205	-0.198435	0.736197	-0.283378	-0.249216	0.469497	-0.303982	-0.227791	0.452736	-0.423285	-0.342635	0.303964	-0.302269	-0.353471	0.262658	-0.312872	-0.293789	0.251042	-0.300162	-0.291317	0.290641	-0.292202	-0.352021	0.128219	-0.320344	-0.319560	0.128537	-0.393282	-0.397268	0.123614	-0.365877	-0.273124	0.036172	-0.289599	-0.228318	0.040631	-0.353989	-0.209275	0.033046	-0.348298	-0.270464	0.738839	-0.646191	-0.255595	0.679805	-0.656452	-0.191457	0.690710	-0.660564	-0.199059	0.749611	-0.651805	-0.258970	0.466085	-0.649542	-0.226963	0.455825	-0.532216	-0.355733	0.311007	-0.648974	-0.362328	0.271916	-0.643643	-0.304037	0.262325	-0.658656	-0.302755	0.304203	-0.667560	-0.352351	0.135104	-0.643731	-0.329358	0.135176	-0.568463	-0.403318	0.130071	-0.595230	-0.281280	0.041407	-0.666931	-0.235645	0.040495	-0.601879	-0.220653	0.034977	-0.606465	
3	0.0150	-0.284519	1.387152	-0.472784	-0.200051	1.370074	-0.624769	-0.228038	1.363765	-0.311512	-0.163735	1.330145	-0.463489	-0.142459	0.905017	-0.353320	-0.149280	0.900421	-0.590863	-0.186484	0.972367	-0.327686	-0.182269	0.967697	-0.610283	-0.309248	0.945887	-0.431210	-0.310312	0.945255	-0.502324	-0.307165	0.952343	-0.465699	-0.270254	0.730681	-0.294680	-0.260638	0.671281	-0.290475	-0.197151	0.678417	-0.280148	-0.198031	0.740071	-0.283382	-0.249824	0.473609	-0.304005	-0.227926	0.457015	-0.423354	-0.341980	0.307503	-0.302465	-0.352285	0.266012	-0.313022	-0.292594	0.255085	-0.299550	-0.290636	0.294804	-0.291670	-0.349546	0.131129	-0.320001	-0.316470	0.131659	-0.392505	-0.394422	0.127186	-0.365711	-0.272330	0.036978	-0.289765	-0.227691	0.040887	-0.353940	-0.209099	0.033114	-0.348116	-0.269914	0.743443	-0.646227	-0.255253	0.684328	-0.656397	-0.191037	0.694993	-0.660420	-0.198402	0.753900	-0.651749	-0.259678	0.470338	-0.649133	-0.226662	0.460260	-0.531945	-0.354736	0.314322	-0.648701	-0.361030	0.275269	-0.643599	-0.302625	0.266198	-0.658909	-0.301772	0.308110	-0.667633	-0.349698	0.138122	-0.644168	-0.326318	0.138046	-0.569156	-0.400318	0.133495	-0.595430	-0.280067	0.042357	-0.666901	-0.235137	0.040632	-0.601910	-0.220397	0.035096	-0.606509	
4	0.0200	-0.284602	1.391179	-0.472781	-0.200116	1.374674	-0.624231	-0.228333	1.368380	-0.312131	-0.164265	1.334630	-0.463493	-0.141862	0.908921	-0.353589	-0.148819	0.904471	-0.590846	-0.185566	0.976614	-0.328005	-0.181588	0.972145	-0.610098	-0.308437	0.950682	-0.431226	-0.309590	0.950080	-0.502330	-0.306305	0.957105	-0.465725	-0.269956	0.734832	-0.294757	-0.260610	0.675408	-0.290561	-0.197107	0.682257	-0.280088	-0.197641	0.743899	-0.283381	-0.250408	0.477655	-0.304024	-0.228059	0.461228	-0.423443	-0.341306	0.310975	-0.302671	-0.351100	0.269299	-0.313159	-0.291405	0.259063	-0.298937	-0.289952	0.298900	-0.291148	-0.347087	0.134010	-0.319634	-0.313420	0.134748	-0.391728	-0.391626	0.130724	-0.365524	-0.271494	0.037856	-0.289908	-0.227043	0.041167	-0.353850	-0.208858	0.033201	-0.347947	-0.269375	0.747996	-0.646265	-0.254931	0.688794	-0.656338	-0.190634	0.699222	-0.660284	-0.197763	0.758139	-0.651697	-0.260386	0.474526	-0.648727	-0.226395	0.464632	-0.531672	-0.353752	0.317577	-0.648420	-0.359688	0.278537	-0.643497	-0.301232	0.270020	-0.659168	-0.300815	0.311966	-0.667702	-0.347065	0.141103	-0.644603	-0.323295	0.140871	-0.569831	-0.397372	0.136907	-0.595664	-0.278843	0.043336	-0.666881	-0.234601	0.040802	-0.601959	-0.220135	0.035218	-0.606595	
5	0.0250	-0.284671	1.395011	-0.472761	-0.200195	1.379107	-0.623681	-0.228617	1.372811	-0.312773	-0.164753	1.338963	-0.463498	-0.141319	0.912735	-0.353849	-0.148367	0.908384	-0.590806	-0.184753	0.980775	-0.328342	-0.180948	0.976455	-0.609909	-0.307722	0.955349	-0.431280	-0.308918	0.954780	-0.502372	-0.305531	0.961741	-0.465775	-0.269670	0.738829	-0.294826	-0.260577	0.679384	-0.290633	-0.197061	0.685971	-0.279994	-0.197286	0.747597	-0.283352	-0.250923	0.481523	-0.304022	-0.228221	0.465270	-0.423557	-0.340602	0.314289	-0.302828	-0.349891	0.272455	-0.313220	-0.290240	0.262860	-0.298333	-0.289273	0.302809	-0.290654	-0.344682	0.136827	-0.319165	-0.310408	0.137732	-0.390955	-0.388894	0.134126	-0.365237	-0.270555	0.038890	-0.290044	-0.226292	0.041621	-0.353753	-0.208562	0.033276	-0.347767	-0.268883	0.752393	-0.646306	-0.254650	0.693120	-0.656305	-0.190271	0.703308	-0.660169	-0.197174	0.762240	-0.651660	-0.261106	0.478545	-0.648330	-0.226210	0.468841	-0.531408	-0.352805	0.320663	-0.648109	-0.358297	0.281601	-0.643331	-0.299863	0.273704	-0.659441	-0.299898	0.315695	-0.667752	-0.344471	0.143938	-0.645057	-0.320331	0.143556	-0.570484	-0.394507	0.140229	-0.595957	-0.277596	0.044427	-0.666927	-0.233964	0.041086	-0.602009	-0.219756	0.035312	-0.606678	
6	0.0300	-0.284709	1.398605	-0.472725	-0.200279	1.383370	-0.623133	-0.228868	1.377062	-0.313444	-0.165089	1.343119	-0.463510	-0.140826	0.916442	-0.354106	-0.147919	0.912151	-0.590756	-0.184034	0.984834	-0.328690	-0.180351	0.980598	-0.609725	-0.307087	0.959871	-0.431376	-0.308303	0.959340	-0.502452	-0.304829	0.966249	-0.465861	-0.269385	0.742668	-0.294921	-0.260536	0.683196	-0.290703	-0.197021	0.689542	-0.279891	-0.196975	0.751158	-0.283317	-0.251362	0.485196	-0.304010	-0.228374	0.469098	-0.423710	-0.339855	0.317414	-0.302993	-0.348680	0.275448	-0.313246	-0.289100	0.266447	-0.297747	-0.288567	0.306503	-0.290182	-0.342356	0.139567	-0.318651	-0.307546	0.140610	-0.390202	-0.386312	0.137408	-0.364888	-0.269505	0.040121	-0.290139	-0.225417	0.042183	-0.353630	-0.208116	0.033408	-0.347525	-0.268432	0.756636	-0.646343	-0.254409	0.697290	-0.656276	-0.189956	0.707240	-0.660072	-0.196641	0.766200	-0.651635	-0.261812	0.482371	-0.647946	-0.226118	0.472856	-0.531133	-0.351885	0.323582	-0.647756	-0.356826	0.284440	-0.643010	-0.298548	0.277235	-0.659724	-0.299049	0.319262	-0.667786	-0.341960	0.146661	-0.645490	-0.317452	0.146130	-0.571086	-0.391785	0.143470	-0.596300	-0.276324	0.045712	-0.667021	-0.233149	0.041500	-0.602024	-0.219253	0.035396	-0.606794	
7	0.0350	-0.284720	1.401942	-0.472675	-0.200363	1.387415	-0.622588	-0.229070	1.381087	-0.314132	-0.165339	1.347047	-0.463526	-0.140395	0.920017	-0.354358	-0.147486	0.915745	-0.590688	-0.183415	0.988763	-0.329041	-0.179795	0.984549	-0.609534	-0.306533	0.964210	-0.431521	-0.307751	0.963727	-0.502574	-0.304203	0.970579	-0.465991	-0.269119	0.746310	-0.295036	-0.260493	0.686807	-0.290767	-0.196989	0.692934	-0.279775	-0.196701	0.754544	-0.283272	-0.251708	0.488632	-0.303996	-0.228508	0.472658	-0.423892	-0.339070	0.320326	-0.303127	-0.347480	0.278245	-0.313224	-0.287998	0.269784	-0.297202	-0.287865	0.309942	-0.289734	-0.340152	0.142199	-0.318124	-0.304897	0.143362	-0.389508	-0.383931	0.140519	-0.364472	-0.268339	0.041631	-0.290182	-0.224239	0.042958	-0.353549	-0.207504	0.033589	-0.347245	-0.268031	0.760685	-0.646376	-0.254208	0.701275	-0.656259	-0.189696	0.710998	-0.660002	-0.196174	0.769988	-0.651619	-0.262494	0.485962	-0.647576	-0.226134	0.476637	-0.530838	-0.351020	0.326298	-0.647368	-0.355322	0.287038	-0.642593	-0.297307	0.280570	-0.660008	-0.298275	0.322632	-0.667802	-0.339566	0.149265	-0.645900	-0.314723	0.148593	-0.571622	-0.389245	0.146589	-0.596681	-0.275027	0.047160	-0.667119	-0.232204	0.042073	-0.602098	-0.218638	0.035493	-0.606996	
8	0.0400	-0.284702	1.405016	-0.472608	-0.200436	1.391222	-0.622057	-0.229209	1.384872	-0.314833	-0.165504	1.350705	-0.463546	-0.140029	0.923441	-0.354601	-0.147065	0.919156	-0.590597	-0.182893	0.992536	-0.329387	-0.179283	0.988290	-0.609335	-0.306059	0.968338	-0.431702	-0.307265	0.967902	-0.502728	-0.303651	0.974701	-0.466156	-0.268876	0.749737	-0.295180	-0.260450	0.690199	-0.290836	-0.196967	0.696137	-0.279650	-0.196466	0.757735	-0.283227	-0.251951	0.491815	-0.303985	-0.228600	0.475911	-0.424083	-0.338251	0.323004	-0.303227	-0.346307	0.280824	-0.313180	-0.286929	0.272845	-0.296705	-0.287150	0.313091	-0.289300	-0.338109	0.144705	-0.317628	-0.302548	0.145979	-0.388899	-0.381810	0.143427	-0.364024	-0.267063	0.043361	-0.290126	-0.222987	0.043840	-0.353353	-0.206741	0.033863	-0.346815	-0.267690	0.764524	-0.646400	-0.254058	0.705061	-0.656243	-0.189493	0.714578	-0.659954	-0.195775	0.773593	-0.651604	-0.263125	0.489297	-0.647225	-0.226269	0.480149	-0.530517	-0.350210	0.328805	-0.646942	-0.353884	0.289425	-0.642127	-0.296161	0.283681	-0.660275	-0.297583	0.325768	-0.667795	-0.337334	0.151759	-0.646267	-0.312172	0.150961	-0.572065	-0.386928	0.149556	-0.597082	-0.273730	0.048842	-0.667280	-0.231186	0.042763	-0.602245	-0.217857	0.035665	-0.607272	
9	0.0450	-0.284650	1.407827	-0.472529	-0.200486	1.394769	-0.621547	-0.229268	1.388394	-0.315531	-0.165603	1.354068	-0.463572	-0.139732	0.926697	-0.354831	-0.146652	0.922370	-0.590478	-0.182469	0.996117	-0.329722	-0.178809	0.991801	-0.609127	-0.305658	0.972228	-0.431903	-0.306844	0.971837	-0.502908	-0.303179	0.978591	-0.466341	-0.268661	0.752919	-0.295353	-0.260405	0.693354	-0.290910	-0.196956	0.699128	-0.279525	-0.196281	0.760719	-0.283194	-0.252068	0.494728	-0.303977	-0.228628	0.478825	-0.424257	-0.337409	0.325455	-0.303273	-0.345172	0.283199	-0.313103	-0.285901	0.275609	-0.296286	-0.286404	0.315933	-0.288934	-0.336261	0.147065	-0.317185	-0.300540	0.148432	-0.388400	-0.379956	0.146093	-0.363559	-0.265678	0.045347	-0.290035	-0.221676	0.044927	-0.353037	-0.205843	0.034316	-0.346137	-0.267414	0.768132	-0.646406	-0.253944	0.708632	-0.656234	-0.189346	0.717966	-0.659916	-0.195450	0.777005	-0.651584	-0.263676	0.492362	-0.646907	-0.226510	0.483366	-0.530170	-0.349453	0.331104	-0.646479	-0.352510	0.291597	-0.641620	-0.295112	0.286550	-0.660511	-0.296963	0.328654	-0.667761	-0.335293	0.154137	-0.646576	-0.309889	0.153246	-0.572437	-0.384812	0.152297	-0.597431	-0.272416	0.050714	-0.667467	-0.230063	0.043576	-0.602475	-0.216934	0.035878	-0.607656	
